<svg width="150" height="36" viewBox="0 0 150 36" fill="none" xmlns="http://www.w3.org/2000/svg">
<g clip-path="url(#clip0_798_2113)">
<path d="M26.9979 21.0192C24.3719 21.8692 22.088 23.5608 20.4889 25.84L16.5792 31.4126L12.6695 25.84C11.0704 23.5608 8.78642 21.8692 6.16049 21.0192L0 19.0255V25.4676C0 26.5387 0.575546 27.5244 1.501 28.0386L15.1945 35.6409C16.0574 36.12 17.1005 36.12 17.9634 35.6409L31.6569 28.0386C32.5823 27.5249 33.1579 26.5392 33.1579 25.4676V19.026L26.9979 21.0197V21.0192Z" fill="#F5F5F5"/>
<path d="M6.16049 14.98C8.78642 14.13 11.0704 12.4385 12.6695 10.1592L16.5792 4.58662L20.4889 10.1592C22.088 12.4385 24.3719 14.13 26.9979 14.98L33.1579 16.9737V10.5321C33.1579 9.461 32.5823 8.47531 31.6569 7.96112L17.9634 0.358777C17.1005 -0.120312 16.0574 -0.120312 15.1945 0.358777L1.501 7.96159C0.575546 8.47531 0 9.461 0 10.5321V16.9742L6.16049 14.98Z" fill="#F5F5F5"/>
<path d="M16.5792 18L20.1553 14.5558C21.0238 15.4855 21.5082 16.7188 21.5082 18C21.5082 20.7455 19.2831 23.0048 16.5792 23.0048C13.8752 23.0048 11.6501 20.7455 11.6501 18C11.6501 15.2545 13.8752 12.9952 16.5792 12.9952C17.6523 12.9952 18.6968 13.3509 19.5527 14.0084L16.5792 18Z" fill="#F5F5F5"/>
</g>
<path d="M48 25.02L53.42 10.78H57.5L62.86 25.02H58.7L54.72 12.92H56.16L52.08 25.02H48ZM51.52 22.62V19.5H59.48V22.62H51.52Z" fill="#F5F5F5"/>
<path d="M71.6359 25.02L67.8759 18.68H67.5359L62.1959 10.78H66.9559L70.5959 16.76H70.9359L76.3359 25.02H71.6359ZM61.9359 25.02L67.0559 17.4L70.2959 18.76L66.5159 25.02H61.9359ZM70.9959 18.4L67.7559 17.04L71.4959 10.78H76.0759L70.9959 18.4Z" fill="#F5F5F5"/>
<path d="M80.7245 20.12L75.3045 10.78H79.9045L84.0045 18.4H80.5645L84.6645 10.78H89.1645L83.7045 20.12H80.7245ZM80.2645 25.02V18.66H84.2645V25.02H80.2645Z" fill="#F5F5F5"/>
<path d="M89.5397 25.02V10.78H93.5397V25.02H89.5397ZM92.7997 25.02V21.62H99.4597V25.02H92.7997Z" fill="#F5F5F5"/>
<path d="M107.137 25.3C106.017 25.3 104.983 25.1133 104.037 24.74C103.103 24.3667 102.283 23.8467 101.577 23.18C100.883 22.5133 100.343 21.7267 99.9567 20.82C99.5701 19.9133 99.3767 18.9333 99.3767 17.88C99.3767 16.8133 99.5634 15.8333 99.9367 14.94C100.323 14.0467 100.863 13.2667 101.557 12.6C102.25 11.9333 103.063 11.42 103.997 11.06C104.943 10.6867 105.977 10.5 107.097 10.5C108.217 10.5 109.243 10.6867 110.177 11.06C111.123 11.42 111.943 11.9333 112.637 12.6C113.33 13.2667 113.863 14.0533 114.237 14.96C114.623 15.8533 114.817 16.8333 114.817 17.9C114.817 18.9533 114.623 19.9333 114.237 20.84C113.863 21.7333 113.33 22.52 112.637 23.2C111.943 23.8667 111.13 24.3867 110.197 24.76C109.263 25.12 108.243 25.3 107.137 25.3ZM107.097 21.78C107.843 21.78 108.49 21.62 109.037 21.3C109.583 20.98 110.003 20.5267 110.297 19.94C110.59 19.3533 110.737 18.6667 110.737 17.88C110.737 17.2933 110.65 16.7667 110.477 16.3C110.317 15.82 110.077 15.4133 109.757 15.08C109.437 14.7333 109.05 14.4733 108.597 14.3C108.157 14.1133 107.657 14.02 107.097 14.02C106.35 14.02 105.703 14.18 105.157 14.5C104.61 14.8067 104.19 15.2533 103.897 15.84C103.603 16.4133 103.457 17.0933 103.457 17.88C103.457 18.48 103.537 19.02 103.697 19.5C103.87 19.98 104.117 20.3933 104.437 20.74C104.757 21.0733 105.137 21.3333 105.577 21.52C106.03 21.6933 106.537 21.78 107.097 21.78Z" fill="#F5F5F5"/>
<path d="M116.064 25.02V10.78H118.864L120.064 13.78V25.02H116.064ZM125.864 25.02L117.604 14.64L118.864 10.78L127.124 21.16L125.864 25.02ZM125.864 25.02L124.864 21.86V10.78H128.864V25.02H125.864Z" fill="#F5F5F5"/>
<defs>
<clipPath id="clip0_798_2113">
<rect width="33.1579" height="36" fill="white"/>
</clipPath>
</defs>
</svg>
