<svg width="251" height="251" viewBox="0 0 251 251" fill="none" xmlns="http://www.w3.org/2000/svg">
<path d="M85.7834 17.0506C83.8945 11.8608 86.5632 6.08072 91.8873 4.61252C115.684 -1.94986 140.974 -1.33734 164.541 6.49542C191.281 15.3829 214.234 33.0446 229.675 56.6151C245.117 80.1857 252.142 108.282 249.61 136.347C247.078 164.411 235.138 190.797 215.727 211.223C196.316 231.649 170.573 244.918 142.674 248.876C114.775 252.834 86.3573 247.25 62.0308 233.029C37.7042 218.808 18.8963 196.784 8.65822 170.532C-0.364849 147.394 -2.26483 122.169 3.07683 98.0683C4.27192 92.6763 9.90855 89.7166 15.1878 91.3387L19.9673 92.8073C25.2466 94.4294 28.1584 100.02 27.0714 105.435C23.3205 124.119 24.9751 143.564 31.9497 161.448C40.1402 182.45 55.1865 200.069 74.6478 211.446C94.109 222.823 116.843 227.29 139.163 224.124C161.482 220.957 182.076 210.342 197.605 194.001C213.134 177.66 222.686 156.552 224.711 134.1C226.737 111.649 221.117 89.1716 208.764 70.3151C196.41 51.4587 178.048 37.3294 156.656 30.2194C138.439 24.1648 118.936 23.5029 100.466 28.2007C95.1138 29.5621 89.3824 26.9388 87.4935 21.749L85.7834 17.0506Z" fill="#C9184A"/>
<path d="M46.8758 146.075C42.0746 147.361 37.0918 144.514 36.2911 139.609C33.5279 122.681 35.6513 105.246 42.5085 89.3888C50.5611 70.7669 64.6695 55.4121 82.5447 45.8154C100.42 36.2188 121.013 32.9433 140.984 36.5204C160.954 40.0975 179.131 50.3173 192.563 65.5218C205.996 80.7263 213.898 100.024 214.986 120.283C216.074 140.542 210.286 160.575 198.559 177.131C186.832 193.687 169.856 205.795 150.383 211.491C133.801 216.341 116.238 216.299 99.7799 211.471C95.0104 210.072 92.7992 204.776 94.6676 200.17C96.5361 195.564 101.777 193.404 106.58 194.684C119.242 198.057 132.645 197.925 145.33 194.215C160.908 189.658 174.489 179.971 183.87 166.727C193.252 153.482 197.883 137.456 197.012 121.248C196.141 105.041 189.82 89.6032 179.074 77.4396C168.328 65.276 153.787 57.1001 137.81 54.2384C121.834 51.3767 105.359 53.9971 91.0589 61.6744C76.7587 69.3518 65.4721 81.6356 59.03 96.5331C53.7842 108.664 52.0014 121.949 53.7883 134.929C54.4661 139.853 51.677 144.788 46.8758 146.075Z" stroke="#F1DCA7" stroke-width="5"/>
<path d="M105.764 74.7048C104.577 71.6112 106.117 68.1092 109.314 67.2364C120.345 64.2247 132.052 64.4176 143.043 67.8591C155.951 71.9004 167.115 80.1844 174.723 91.3672C182.332 102.55 185.938 115.975 184.958 129.466C183.978 142.956 178.469 155.719 169.324 165.685C160.18 175.65 147.936 182.234 134.58 184.367C121.223 186.5 107.538 184.058 95.7438 177.437C83.9497 170.816 74.7388 160.404 69.6053 147.89C65.2339 137.234 64.0377 125.587 66.0922 114.338C66.6876 111.078 70.0447 109.243 73.2287 110.161C76.4128 111.079 78.2099 114.404 77.6962 117.677C76.342 126.307 77.3634 135.184 80.7075 143.336C84.8142 153.347 92.183 161.676 101.618 166.973C111.054 172.27 122.002 174.224 132.687 172.517C143.372 170.811 153.167 165.544 160.483 157.571C167.798 149.599 172.206 139.388 172.99 128.596C173.774 117.804 170.888 107.064 164.802 98.1174C158.715 89.1712 149.784 82.544 139.458 79.3109C131.049 76.6782 122.117 76.4219 113.636 78.5112C110.418 79.3038 106.952 77.7984 105.764 74.7048Z" fill="#C9184A"/>
</svg>
