<svg width="45" height="38" viewBox="0 0 45 38" fill="none" xmlns="http://www.w3.org/2000/svg">
<path d="M3.03222 16.3734C16.8794 10.2817 34.7988 2.85457 37.2723 1.82661C43.7606 -0.863942 45.7515 -0.348309 44.7588 5.61012C44.046 9.89274 41.989 24.0716 40.3495 32.8968C39.3766 38.1303 37.194 38.7506 33.762 36.4864C32.1115 35.3968 23.7809 29.8879 21.9729 28.5944C20.3225 27.4155 18.0462 25.9975 20.9009 23.2045C21.9167 22.2095 28.5759 15.8512 33.7642 10.902C34.444 10.2519 33.5901 9.18429 32.8056 9.70544C25.8126 14.3428 16.117 20.7794 14.883 21.6179C13.0188 22.8838 11.2284 23.4645 8.01447 22.5412C5.58614 21.8438 3.21401 21.0119 2.29072 20.6946C-1.26473 19.4738 -0.420763 17.8928 3.03222 16.3734Z" fill="#C9184A"/>
</svg>
