<svg width="70" height="36" viewBox="0 0 70 36" fill="none" xmlns="http://www.w3.org/2000/svg">
<rect x="-0.00476074" width="70" height="36" rx="18" fill="#C9184A"/>
<circle cx="52" cy="18" r="15" fill="#F5F5F5"/>
<path d="M58.568 21.9868C58.5009 21.8227 58.3886 21.681 58.2443 21.5781C58.0999 21.4752 57.9293 21.4154 57.7523 21.4055C56.6961 21.3416 55.6794 20.9811 54.8188 20.3654C53.9583 19.7497 53.2889 18.9037 52.8875 17.9247C52.4861 16.9456 52.369 15.8732 52.5496 14.8306C52.7302 13.788 53.2012 12.8175 53.9086 12.0305C54.0179 11.9036 54.0912 11.7497 54.1209 11.5848C54.1506 11.4199 54.1355 11.2501 54.0773 11.093C54.0103 10.929 53.898 10.7873 53.7537 10.6844C53.6093 10.5815 53.4387 10.5217 53.2617 10.5118C52.1504 10.4494 51.0392 10.6351 50.0086 11.0555C48.9663 11.4807 48.0331 12.135 47.2781 12.97C46.5232 13.805 45.9658 14.7992 45.6475 15.8789C45.3291 16.9586 45.2579 18.0962 45.4391 19.2072C45.6203 20.3182 46.0492 21.3741 46.6941 22.2968C47.339 23.2194 48.1834 23.985 49.1645 24.5369C50.1456 25.0887 51.2384 25.4127 52.3617 25.4847C53.4851 25.5566 54.6103 25.3748 55.6538 24.9527C56.6973 24.5305 57.6325 23.8789 58.3898 23.0461C58.5245 22.9091 58.6138 22.734 58.6457 22.5445C58.6775 22.355 58.6504 22.1603 58.568 21.9868Z" stroke="#C9184A"/>
<path d="M24.3 17.4393H23.614C23.2269 17.4393 22.914 17.6906 22.914 18C22.914 18.3087 23.2269 18.5593 23.614 18.5593H24.3C24.6864 18.5593 25 18.3094 25 18C25 17.6913 24.6857 17.4393 24.3 17.4393ZM18 14.15C17.494 14.1484 16.9926 14.2469 16.5248 14.4399C16.057 14.6328 15.632 14.9163 15.2741 15.2741C14.9163 15.632 14.6328 16.057 14.4399 16.5248C14.2469 16.9926 14.1484 17.494 14.15 18C14.15 20.1357 15.8643 21.85 18 21.85C20.135 21.85 21.85 20.1357 21.85 18C21.85 15.8643 20.1343 14.15 18 14.15ZM18 20.8C16.4523 20.8 15.2 19.5463 15.2 18C15.2 16.4523 16.4523 15.2 18 15.2C18.7426 15.2 19.4548 15.495 19.9799 16.0201C20.505 16.5452 20.8 17.2574 20.8 18C20.8 18.7426 20.505 19.4548 19.9799 19.9799C19.4548 20.505 18.7426 20.8 18 20.8ZM13.1 18C13.1 17.6913 12.7857 17.4393 12.4 17.4393H11.7C11.3129 17.4393 11 17.6906 11 18C11 18.3087 11.3129 18.5593 11.7 18.5593H12.4C12.7857 18.5593 13.1 18.3087 13.1 18ZM18 13.1C18.3087 13.1 18.5593 12.7871 18.5593 12.4V11.7C18.5593 11.3129 18.3087 11 18 11C17.6906 11 17.4393 11.3129 17.4393 11.7V12.4C17.4393 12.7871 17.6906 13.1 18 13.1ZM18 22.9C17.6906 22.9 17.4393 23.2129 17.4393 23.6V24.3C17.4393 24.6871 17.6906 25 18 25C18.3087 25 18.5593 24.6871 18.5593 24.3V23.6C18.5593 23.2129 18.3087 22.9 18 22.9ZM23.1555 13.6362C23.4292 13.3625 23.4733 12.9635 23.2549 12.7451C23.0365 12.5267 22.6368 12.5715 22.3645 12.8452L21.8745 13.3345C21.6008 13.6082 21.5567 14.0072 21.7751 14.2256C21.9935 14.444 22.3932 14.3992 22.6662 14.1255L23.1555 13.6362ZM13.3338 21.8731L12.8438 22.3638C12.5701 22.6375 12.526 23.0351 12.7444 23.2535C12.9628 23.4719 13.3625 23.4285 13.6348 23.1548L14.1248 22.6655C14.3985 22.3918 14.4426 21.9928 14.2242 21.7737C14.0058 21.5546 13.6061 21.6008 13.3338 21.8731ZM13.6355 12.8445C13.3625 12.5708 12.9628 12.526 12.7444 12.7444C12.526 12.9628 12.5708 13.3625 12.8431 13.6362L13.3331 14.1255C13.6068 14.3992 14.0051 14.444 14.2235 14.2256C14.4419 14.0072 14.3978 13.6075 14.1248 13.3345L13.6355 12.8445ZM21.8738 22.6662L22.3638 23.1555C22.6375 23.4292 23.0358 23.4726 23.2542 23.2556C23.4726 23.0372 23.4285 22.6375 23.1548 22.3645L22.6655 21.8752C22.3918 21.6015 21.9928 21.5567 21.7737 21.7751C21.5546 21.9935 21.6001 22.3925 21.8738 22.6662Z" fill="#F5F5F5"/>
</svg>
