<?xml version="1.0" encoding="UTF-8"?>
<svg id="_Слой_2" data-name="Слой 2" xmlns="http://www.w3.org/2000/svg" viewBox="0 0 637.07 681.2">
  <defs>
    <style>
      .cls-1 {
        fill: #f5f5f5;
      }
    </style>
  </defs>
  <g id="_Слой_1-2" data-name="Слой 1">
    <g>
      <g>
        <path class="cls-1" d="M118.36,283.46c50.45-16.08,94.33-48.09,125.06-91.22l75.12-105.44,75.12,105.44c30.73,43.13,74.6,75.13,125.06,91.22l118.35,37.73v-121.89c0-20.27-11.06-38.92-28.84-48.64L345.13,6.8c-16.57-9.06-36.62-9.06-53.2,0L28.84,150.65C11.06,160.38,0,179.03,0,199.3v121.9l118.36-37.73Z"/>
        <path class="cls-1" d="M518.72,397.73c-50.45,16.08-94.33,48.09-125.06,91.22l-75.12,105.44-75.12-105.44c-30.73-43.13-74.6-75.13-125.06-91.22L0,360v121.9c0,20.27,11.06,38.92,28.84,48.64l263.09,143.86c16.57,9.06,36.62,9.06,53.2,0l263.09-143.86c17.78-9.72,28.84-28.38,28.84-48.64v-121.89l-118.35,37.73Z"/>
      </g>
      <path class="cls-1" d="M318.53,340.6l93.14-88.35c22.62,23.84,35.24,55.49,35.24,88.35,0,70.43-57.95,128.38-128.38,128.38s-128.38-57.95-128.38-128.38,57.95-128.38,128.38-128.38c27.95,0,55.15,9.13,77.44,25.99l-77.44,102.39Z"/>
    </g>
  </g>
</svg>