<svg width="34" height="36" viewBox="0 0 34 36" fill="none" xmlns="http://www.w3.org/2000/svg">
<mask id="mask0_1031_392" style="mask-type:luminance" maskUnits="userSpaceOnUse" x="0" y="0" width="34" height="36">
<path d="M33.1579 0H0V36H33.1579V0Z" fill="white"/>
</mask>
<g mask="url(#mask0_1031_392)">
<path d="M26.9979 21.0192C24.3719 21.8692 22.088 23.5608 20.4889 25.84L16.5792 31.4126L12.6695 25.84C11.0704 23.5608 8.78642 21.8692 6.16049 21.0192L0 19.0255V25.4676C0 26.5387 0.575546 27.5244 1.501 28.0386L15.1945 35.6409C16.0574 36.12 17.1005 36.12 17.9634 35.6409L31.6569 28.0386C32.5823 27.5249 33.1579 26.5392 33.1579 25.4676V19.026L26.9979 21.0192Z" fill="#1A1A1A"/>
<path d="M6.16049 14.9801C8.78642 14.1301 11.0704 12.4386 12.6695 10.1593L16.5792 4.58667L20.4889 10.1593C22.088 12.4386 24.3719 14.1301 26.9979 14.9801L33.1579 16.9738V10.5322C33.1579 9.46105 32.5823 8.47536 31.6569 7.96117L17.9634 0.358828C17.1005 -0.120261 16.0574 -0.120261 15.1945 0.358828L1.501 7.96164C0.575546 8.47536 0 9.46105 0 10.5322V16.9743L6.16049 14.9801Z" fill="#1A1A1A"/>
<path d="M16.5792 18L20.1553 14.5558C21.0238 15.4855 21.5082 16.7188 21.5082 18C21.5082 20.7455 19.2831 23.0048 16.5792 23.0048C13.8752 23.0048 11.6501 20.7455 11.6501 18C11.6501 15.2545 13.8752 12.9952 16.5792 12.9952C17.6523 12.9952 18.6968 13.3509 19.5527 14.0084L16.5792 18Z" fill="#1A1A1A"/>
</g>
</svg>
